<mxfile host="65bd71144e">
    <diagram id="FqtM6WGoRdXxyTnu8yfa" name="Page-1">
        <mxGraphModel dx="1191" dy="801" grid="1" gridSize="10" guides="1" tooltips="1" connect="1" arrows="1" fold="1" page="1" pageScale="1" pageWidth="827" pageHeight="1169" math="0" shadow="0">
            <root>
                <mxCell id="0"/>
                <mxCell id="1" parent="0"/>
                <mxCell id="2" value="" style="rounded=1;whiteSpace=wrap;html=1;absoluteArcSize=1;arcSize=14;strokeWidth=2;" vertex="1" parent="1">
                    <mxGeometry x="30" y="55" width="490" height="510" as="geometry"/>
                </mxCell>
                <mxCell id="5" value="&lt;font style=&quot;font-size: 36px&quot;&gt;Guessing game&lt;/font&gt;" style="whiteSpace=wrap;html=1;fillColor=#3333FF;" vertex="1" parent="1">
                    <mxGeometry x="60" y="70" width="290" height="40" as="geometry"/>
                </mxCell>
                <mxCell id="10" value="" style="strokeWidth=2;html=1;shape=mxgraph.flowchart.annotation_1;align=left;pointerEvents=1;fontSize=36;fillColor=#3333FF;rotation=90;" vertex="1" parent="1">
                    <mxGeometry x="150" y="255" width="50" height="260" as="geometry"/>
                </mxCell>
                <mxCell id="11" value="&lt;font style=&quot;font-size: 24px&quot;&gt;Slider(1-6)&lt;/font&gt;" style="whiteSpace=wrap;html=1;fontSize=36;fillColor=#FFFFFF;" vertex="1" parent="1">
                    <mxGeometry x="50" y="280" width="250" height="60" as="geometry"/>
                </mxCell>
                <mxCell id="12" value="Check" style="whiteSpace=wrap;html=1;fontSize=24;fillColor=#FFFFFF;" vertex="1" parent="1">
                    <mxGeometry x="40" y="430" width="120" height="60" as="geometry"/>
                </mxCell>
            </root>
        </mxGraphModel>
    </diagram>
</mxfile>